<?xml version="1.0" encoding="utf-8" ?>
<svg baseProfile="full" height="220" version="1.1" viewBox="-300,0,1200,100" width="862.1" xmlns="http://www.w3.org/2000/svg" xmlns:ev="http://www.w3.org/2001/xml-events" xmlns:xlink="http://www.w3.org/1999/xlink"><defs><linearGradient id="grad_0" x1="0%" x2="0%" y1="100%" y2="0%"><stop offset="0.0" stop-color="#d3d3d3" /><stop offset="0.5" stop-color="#e4e4e4" /><stop offset="1.0" stop-color="#f1f1f1" /></linearGradient><linearGradient id="grad_1" x1="0%" x2="0%" y1="100%" y2="0%"><stop offset="0.0" stop-color="#0077cc" /><stop offset="0.5" stop-color="#47b2ff" /><stop offset="1.0" stop-color="#a3d8ff" /></linearGradient><linearGradient id="grad_2" x1="0%" x2="0%" y1="100%" y2="0%"><stop offset="0.0" stop-color="#FAE53F" /><stop offset="0.5" stop-color="#fcef8b" /><stop offset="1.0" stop-color="#fdf7c5" /></linearGradient></defs><rect fill="url(#grad_1)" height="20" stroke="#000000" stroke-width="1" width="19.8" x="-140.9" y="100" /><rect fill="url(#grad_1)" height="20" stroke="#000000" stroke-width="1" width="22.9" x="27.0" y="100" /><rect fill="url(#grad_1)" height="20" stroke="#000000" stroke-width="1" width="0.1" x="50.0" y="100" /><rect fill="url(#grad_1)" height="20" stroke="#000000" stroke-width="1" width="44.4" x="60.0" y="100" /><rect fill="url(#grad_1)" height="20" stroke="#000000" stroke-width="1" width="74.0" x="112.7" y="100" /><rect fill="url(#grad_1)" height="20" stroke="#000000" stroke-width="1" width="8.7" x="210.9" y="100" /><rect fill="url(#grad_1)" height="20" stroke="#000000" stroke-width="1" width="6.2" x="230.3" y="100" /><rect fill="url(#grad_1)" height="20" stroke="#000000" stroke-width="1" width="16.0" x="259.5" y="100" /><rect fill="url(#grad_1)" height="20" stroke="#000000" stroke-width="1" width="7.5" x="285.1" y="100" /><rect fill="url(#grad_1)" height="20" stroke="#000000" stroke-width="1" width="5.9" x="325.3" y="100" /><rect fill="url(#grad_1)" height="20" stroke="#000000" stroke-width="1" width="10.7" x="340.5" y="100" /><rect fill="url(#grad_1)" height="20" stroke="#000000" stroke-width="1" width="23.6" x="379.9" y="100" /><rect fill="url(#grad_1)" height="20" stroke="#000000" stroke-width="1" width="9.1" x="412.8" y="100" /><rect fill="url(#grad_1)" height="20" stroke="#000000" stroke-width="1" width="51.3" x="449.1" y="100" /><rect fill="url(#grad_1)" height="20" stroke="#000000" stroke-width="1" width="19.2" x="500.5" y="100" /><rect fill="url(#grad_1)" height="20" stroke="#000000" stroke-width="1" width="49.0" x="572.2" y="100" /><line stroke="#000000" stroke-width="1" x1="-121.1" x2="27.0" y1="110.0" y2="110.0" /><line stroke="#000000" stroke-width="1" x1="49.9" x2="50.0" y1="110.0" y2="110.0" /><line stroke="#000000" stroke-width="1" x1="104.4" x2="112.7" y1="110.0" y2="110.0" /><line stroke="#000000" stroke-width="1" x1="186.7" x2="210.9" y1="110.0" y2="110.0" /><line stroke="#000000" stroke-width="1" x1="219.6" x2="230.3" y1="110.0" y2="110.0" /><line stroke="#000000" stroke-width="1" x1="236.5" x2="259.5" y1="110.0" y2="110.0" /><line stroke="#000000" stroke-width="1" x1="275.5" x2="285.1" y1="110.0" y2="110.0" /><line stroke="#000000" stroke-width="1" x1="292.6" x2="325.3" y1="110.0" y2="110.0" /><line stroke="#000000" stroke-width="1" x1="331.2" x2="340.5" y1="110.0" y2="110.0" /><line stroke="#000000" stroke-width="1" x1="351.2" x2="379.9" y1="110.0" y2="110.0" /><line stroke="#000000" stroke-width="1" x1="403.5" x2="412.8" y1="110.0" y2="110.0" /><line stroke="#000000" stroke-width="1" x1="421.9" x2="449.1" y1="110.0" y2="110.0" /><line stroke="#000000" stroke-width="1" x1="500.4" x2="500.5" y1="110.0" y2="110.0" /><line stroke="#000000" stroke-width="1" x1="519.7" x2="572.2" y1="110.0" y2="110.0" /><rect fill="url(#grad_0)" height="20" stroke="#000000" stroke-width="1" width="19.8" x="-140.9" y="100" /><rect fill="url(#grad_0)" height="20" stroke="#000000" stroke-width="1" width="22.9" x="27.0" y="100" /><rect fill="url(#grad_0)" height="20" stroke="#000000" stroke-width="1" width="19.200000000000045" x="500.5" y="100" /><polygon fill="url(#grad_0)" points="572.2,100 572.2,120 621.2,120 631.2,110.0 621.2,100" stroke="#000000" stroke-width="1" /><polyline fill="none" points="50.1,100.0 55.05,90.0 60.0,100.0" stroke="#000000" stroke-width="1" /><line stroke="#000000" stroke-width="1" x1="250" x2="250" y1="90" y2="130" /><polygon fill="black" points="250,90 235.0,80 265.0,80" stroke="black" stroke-width="2" /><rect fill="url(#grad_2)" height="20" stroke="#000000" stroke-width="1" width="4.400000000000006" x="100.0" y="100" /><rect fill="url(#grad_2)" height="20" stroke="#000000" stroke-width="1" width="73.99999999999999" x="112.7" y="100" /><text font-size="14px" style="dominant-baseline:middle" text-anchor="end" x="-150" y="110.0">Os04t0559800-01</text></svg>